<?xml version="1.0" encoding="UTF-8" standalone="no"?>
<!-- Created with Inkscape (http://www.inkscape.org/) -->
<svg id="svg2" xmlns:rdf="http://www.w3.org/1999/02/22-rdf-syntax-ns#" xmlns="http://www.w3.org/2000/svg" height="64" width="64" version="1.1" xmlns:cc="http://creativecommons.org/ns#" xmlns:dc="http://purl.org/dc/elements/1.1/" viewBox="0 0 63.999999 63.999999">
 <metadata id="metadata7">
  <rdf:RDF>
   <cc:Work rdf:about="">
    <dc:format>image/svg+xml</dc:format>
    <dc:type rdf:resource="http://purl.org/dc/dcmitype/StillImage"/>
    <dc:title/>
   </cc:Work>
  </rdf:RDF>
 </metadata>
 <g id="layer1" transform="translate(0 -988.36)" fill="#dd6865">
  <path id="path5284" d="m32 0.16211a31.838 31.838 0 0 0 -31.838 31.838 31.838 31.838 0 0 0 31.838 31.838 31.838 31.838 0 0 0 31.838 -31.838 31.838 31.838 0 0 0 -31.838 -31.838zm0.283 2.8379a29 29 0 0 1 29 29 29 29 0 0 1 -29 29 29 29 0 0 1 -29 -29 29 29 0 0 1 29 -29z" transform="translate(0 988.36)"/>
  <g id="g6970" transform="matrix(.64328 .64327 -.64328 .64328 666.48 343.79)">
   <rect id="rect6953" height="33.309" width="4" y="1002.4" x="30.713"/>
   <rect id="rect6953-4" height="4" width="33.309" y="1017" x="16.059"/>
  </g>
 </g>
</svg>
