<?xml version="1.0" encoding="UTF-8" standalone="no"?>
<!-- Created with Inkscape (http://www.inkscape.org/) -->
<svg id="svg2" xmlns:rdf="http://www.w3.org/1999/02/22-rdf-syntax-ns#" xmlns="http://www.w3.org/2000/svg" height="64" width="64" version="1.1" xmlns:cc="http://creativecommons.org/ns#" xmlns:dc="http://purl.org/dc/elements/1.1/" viewBox="0 0 63.999999 63.999999">
 <metadata id="metadata7">
  <rdf:RDF>
   <cc:Work rdf:about="">
    <dc:format>image/svg+xml</dc:format>
    <dc:type rdf:resource="http://purl.org/dc/dcmitype/StillImage"/>
    <dc:title/>
   </cc:Work>
  </rdf:RDF>
 </metadata>
 <g id="layer1" transform="translate(0 -988.36)" fill="#6fc8e2">
  <path id="path5284" d="m32 0.16211a31.838 31.838 0 0 0 -31.838 31.838 31.838 31.838 0 0 0 31.838 31.838 31.838 31.838 0 0 0 31.838 -31.838 31.838 31.838 0 0 0 -31.838 -31.838zm0.283 2.8379a29 29 0 0 1 29 29 29 29 0 0 1 -29 29 29 29 0 0 1 -29 -29 29 29 0 0 1 29 -29z" transform="translate(0 988.36)"/>
  <g id="g6860" transform="translate(3.137 2.6924)">
   <rect id="rect6843" height="19.067" width="4.6924" y="1010.9" x="26.517"/>
   <rect id="rect6843-6" height="4.672" width="4.6924" y="1005.3" x="26.517"/>
  </g>
 </g>
</svg>
