<?xml version="1.0" encoding="UTF-8" standalone="no"?>
<!-- Created with Inkscape (http://www.inkscape.org/) -->

<svg
   xmlns:dc="http://purl.org/dc/elements/1.1/"
   xmlns:cc="http://creativecommons.org/ns#"
   xmlns:rdf="http://www.w3.org/1999/02/22-rdf-syntax-ns#"
   xmlns:svg="http://www.w3.org/2000/svg"
   xmlns="http://www.w3.org/2000/svg"
   xmlns:xlink="http://www.w3.org/1999/xlink"
   xmlns:sodipodi="http://sodipodi.sourceforge.net/DTD/sodipodi-0.dtd"
   xmlns:inkscape="http://www.inkscape.org/namespaces/inkscape"
   width="36.124443mm"
   height="36.124443mm"
   viewBox="0 0 128 127.99999"
   id="svg5029"
   version="1.1"
   inkscape:version="0.91 r13725"
   sodipodi:docname="success.svg">
  <defs
     id="defs5031">
    <linearGradient
       inkscape:collect="always"
       id="linearGradient5595">
      <stop
         style="stop-color:#70c170;stop-opacity:1;"
         offset="0"
         id="stop5597" />
      <stop
         style="stop-color:#70c170;stop-opacity:0;"
         offset="1"
         id="stop5599" />
    </linearGradient>
    <linearGradient
       inkscape:collect="always"
       xlink:href="#linearGradient5595"
       id="linearGradient5601"
       x1="528.51914"
       y1="397.59305"
       x2="656.73342"
       y2="397.59305"
       gradientUnits="userSpaceOnUse"
       gradientTransform="matrix(0.99832875,0,0,0.9983288,-976.52278,71.114863)" />
  </defs>
  <sodipodi:namedview
     id="base"
     pagecolor="#ffffff"
     bordercolor="#666666"
     borderopacity="1.0"
     inkscape:pageopacity="0.0"
     inkscape:pageshadow="2"
     inkscape:zoom="2.8"
     inkscape:cx="133.39284"
     inkscape:cy="57.861477"
     inkscape:document-units="px"
     inkscape:current-layer="layer1"
     showgrid="false"
     fit-margin-top="0"
     fit-margin-left="0"
     fit-margin-right="0"
     fit-margin-bottom="0"
     inkscape:window-width="1366"
     inkscape:window-height="705"
     inkscape:window-x="-8"
     inkscape:window-y="-8"
     inkscape:window-maximized="1" />
  <metadata
     id="metadata5034">
    <rdf:RDF>
      <cc:Work
         rdf:about="">
        <dc:format>image/svg+xml</dc:format>
        <dc:type
           rdf:resource="http://purl.org/dc/dcmitype/StillImage" />
        <dc:title></dc:title>
      </cc:Work>
    </rdf:RDF>
  </metadata>
  <g
     inkscape:label="Capa 1"
     inkscape:groupmode="layer"
     id="layer1"
     transform="translate(-391.01914,-336.20022)">
    <g
       transform="matrix(2.0101765,0,0,2.0101765,390.69349,-1650.9037)"
       id="layer1-1"
       style="fill:#70c170">
      <path
         transform="translate(0,988.36)"
         d="M 32,0.16211 A 31.838,31.838 0 0 0 0.162,32.00011 31.838,31.838 0 0 0 32,63.83811 31.838,31.838 0 0 0 63.838,32.00011 31.838,31.838 0 0 0 32,0.16211 Z m 0.283,2.8379 a 29,29 0 0 1 29,29 29,29 0 0 1 -29,29 29,29 0 0 1 -29,-29 29,29 0 0 1 29,-29 z"
         id="path5284"
         inkscape:connector-curvature="0" />
      <g
         transform="translate(2.1304,1.3771)"
         id="g6883">
        <rect
           x="642.82001"
           y="788.33002"
           width="14.521"
           height="4"
           transform="matrix(0.78673036,0.6172968,-0.6172968,0.78673036,0,0)"
           id="rect6864" />
        <rect
           x="-755.35999"
           y="691.23999"
           width="19.445"
           height="4"
           transform="matrix(0.65514967,-0.75549911,0.75549911,0.65514967,0,0)"
           id="rect6881" />
      </g>
    </g>
    <circle
       style="opacity:0.4;fill:url(#linearGradient5601);fill-opacity:1;stroke:none;stroke-opacity:1"
       id="path5593"
       cx="-384.88693"
       cy="468.04349"
       transform="matrix(0.03317016,-0.99944972,0.99944972,0.03317016,0,0)"
       r="64.000008" />
  </g>
</svg>
