<?xml version="1.0" encoding="UTF-8" standalone="no"?>
<!-- Created with Inkscape (http://www.inkscape.org/) -->
<svg id="svg2" xmlns:rdf="http://www.w3.org/1999/02/22-rdf-syntax-ns#" xmlns="http://www.w3.org/2000/svg" height="64" width="64" version="1.1" xmlns:cc="http://creativecommons.org/ns#" xmlns:dc="http://purl.org/dc/elements/1.1/" viewBox="0 0 63.999999 63.999999">
 <metadata id="metadata7">
  <rdf:RDF>
   <cc:Work rdf:about="">
    <dc:format>image/svg+xml</dc:format>
    <dc:type rdf:resource="http://purl.org/dc/dcmitype/StillImage"/>
    <dc:title/>
   </cc:Work>
  </rdf:RDF>
 </metadata>
 <g id="layer1" transform="translate(0 -988.36)" fill="#70c170">
  <path id="path5284" d="m32 0.16211a31.838 31.838 0 0 0 -31.838 31.838 31.838 31.838 0 0 0 31.838 31.838 31.838 31.838 0 0 0 31.838 -31.838 31.838 31.838 0 0 0 -31.838 -31.838zm0.283 2.8379a29 29 0 0 1 29 29 29 29 0 0 1 -29 29 29 29 0 0 1 -29 -29 29 29 0 0 1 29 -29z" transform="translate(0 988.36)"/>
  <g id="g6883" transform="translate(2.1304 1.3771)">
   <rect id="rect6864" transform="rotate(38.119)" height="4" width="14.521" y="788.33" x="642.82"/>
   <rect id="rect6881" transform="rotate(-49.069)" height="4" width="19.445" y="691.24" x="-755.36"/>
  </g>
 </g>
</svg>
